<?xml version="1.0" encoding="UTF-8"?><svg id="_レイヤー_1" data-name="レイヤー 1" xmlns="http://www.w3.org/2000/svg" xmlns:xlink="http://www.w3.org/1999/xlink" viewBox="0 0 60 60"><defs><style>.cls-1 {
        fill: #fff;
      }

      .cls-2 {
        fill: none;
      }

      .cls-3 {
        fill: #33495c;
      }

      .cls-4 {
        clip-path: url(#clippath);
      }</style><clipPath id="clippath"><rect class="cls-2" x="-57.27" y="-1128.84" width="1920" height="1080"/></clipPath></defs><g class="cls-4"><path class="cls-3" d="M60,44.73v11.79c0,1.75-1.35,3.2-3.1,3.32-1.46.1-2.65.16-3.57.16C23.88,60,0,36.12,0,6.66c0-.92.05-2.11.15-3.57C.28,1.35,1.73,0,3.48,0h11.79c.85,0,1.57.65,1.66,1.5.08.76.15,1.38.21,1.84.68,4.71,2.05,9.19,4.02,13.33.31.67.11,1.46-.49,1.89l-7.19,5.14c4.38,10.23,12.58,18.43,22.82,22.82l5.13-7.18c.44-.61,1.24-.82,1.91-.5,4.15,1.97,8.63,3.35,13.33,4.02.46.07,1.07.14,1.83.21.85.08,1.5.8,1.5,1.66"/></g><path class="cls-1" d="M60,44.73v11.79c0,1.75-1.35,3.2-3.1,3.32-1.46.1-2.65.16-3.57.16C23.88,60,0,36.12,0,6.66c0-.92.05-2.11.15-3.57C.28,1.35,1.73,0,3.48,0h11.79c.85,0,1.57.65,1.66,1.5.08.76.15,1.38.21,1.84.68,4.71,2.05,9.19,4.02,13.33.31.67.11,1.46-.49,1.89l-7.19,5.14c4.38,10.23,12.58,18.43,22.82,22.82l5.13-7.18c.44-.61,1.24-.82,1.91-.5,4.15,1.97,8.63,3.35,13.33,4.02.46.07,1.07.14,1.83.21.85.08,1.5.8,1.5,1.66"/></svg>