<?xml version="1.0" encoding="UTF-8"?><svg xmlns="http://www.w3.org/2000/svg" viewBox="0 0 138 138"><defs><style>.cls-1 {
        fill: #008cff;
      }

      .cls-2 {
        fill: none;
        stroke: #008cff;
        stroke-width: 6px;
      }

      .cls-3 {
        fill: #fff;
      }

      .cls-4 {
        fill: #f0f8fe;
      }</style></defs><g id="_背景" data-name="背景"><ellipse id="_楕円形_591" data-name="楕円形 591" class="cls-4" cx="69" cy="69" rx="68.73" ry="68.78"/></g><g id="_レイヤー_1" data-name="レイヤー 1"><path id="_楕円形_592" data-name="楕円形 592" class="cls-2" d="M55.4,52.68c21.75-19.32,45-28.66,51.92-20.86s-5.1,29.77-26.86,49.09c-21.76,19.32-45,28.66-51.92,20.86s5.1-29.77,26.86-49.09Z"/><rect id="_長方形_1" data-name="長方形 1" class="cls-1" x="36" y="34" width="19.25" height="76" rx="4" ry="4"/><rect id="_長方形_1-2" data-name="長方形 1-2" class="cls-1" x="60" y="34" width="42.5" height="76" rx="4" ry="4"/><rect id="_長方形_1-3" data-name="長方形 1-3" class="cls-3" x="65" y="40" width="32.75" height="25.25" rx="3" ry="3"/><rect id="_長方形_1-4" data-name="長方形 1-4" class="cls-3" x="65" y="73" width="8.5" height="8" rx="2" ry="2"/><rect id="_長方形_1-5" data-name="長方形 1-5" class="cls-3" x="77" y="73" width="8.5" height="8" rx="2" ry="2"/><rect id="_長方形_1-6" data-name="長方形 1-6" class="cls-3" x="89" y="73" width="8.5" height="8" rx="2" ry="2"/><rect id="_長方形_1-7" data-name="長方形 1-7" class="cls-3" x="65" y="84" width="8.5" height="8" rx="2" ry="2"/><rect id="_長方形_1-8" data-name="長方形 1-8" class="cls-3" x="77" y="84" width="8.5" height="8" rx="2" ry="2"/><rect id="_長方形_1-9" data-name="長方形 1-9" class="cls-3" x="89" y="84" width="8.5" height="8" rx="2" ry="2"/><rect id="_長方形_1-10" data-name="長方形 1-10" class="cls-3" x="65" y="95" width="8.5" height="8" rx="2" ry="2"/><rect id="_長方形_1-11" data-name="長方形 1-11" class="cls-3" x="77" y="95" width="8.5" height="8" rx="2" ry="2"/><rect id="_長方形_1-12" data-name="長方形 1-12" class="cls-3" x="89" y="95" width="8.5" height="8" rx="2" ry="2"/><path id="_楕円形_592-2" data-name="楕円形 592" class="cls-2" d="M101.24,57.64c-4.99,7.47-12.11,15.58-20.77,23.27-13.46,11.95-27.5,20.09-37.88,22.7"/></g></svg>